<svg height="464pt" viewBox="0 0 464 464" width="464pt" xmlns="http://www.w3.org/2000/svg"><path d="m352 112v320c0 17.671875-14.328125 32-32 32h-288c-17.671875 0-32-14.328125-32-32v-400c0-17.671875 14.328125-32 32-32h208v80c0 17.671875 14.328125 32 32 32zm0 0" fill="#e6e7e8"/><path d="m272 112h80l-112-112v80c0 17.671875 14.328125 32 32 32zm0 0" fill="#bcbec0"/><path d="m352 112v320c0 17.671875-14.328125 32-32 32h-288c-17.671875 0-32-14.328125-32-32v-24.238281c102.960938-42.402344 237.039062-127.441407 316.878906-295.761719zm0 0" fill="#d8d7da"/><path d="m256 144h192c8.835938 0 16 7.164062 16 16v256c0 8.835938-7.164062 16-16 16h-192c-8.835938 0-16-7.164062-16-16v-256c0-8.835938 7.164062-16 16-16zm0 0" fill="#ff7956"/><path d="m464 160v256c-.027344 8.824219-7.175781 15.972656-16 16h-192c-8.824219-.027344-15.972656-7.175781-16-16v-16.480469c84.117188-66.480469 148.234375-154.90625 185.28125-255.519531h22.71875c8.824219.027344 15.972656 7.175781 16 16zm0 0" fill="#ff6243"/><path d="m272 176h160v48h-160zm0 0" fill="#ffde55"/><g fill="#ffa733"><path d="m304 272c0 8.835938-7.164062 16-16 16s-16-7.164062-16-16 7.164062-16 16-16 16 7.164062 16 16zm0 0"/><path d="m368 272c0 8.835938-7.164062 16-16 16s-16-7.164062-16-16 7.164062-16 16-16 16 7.164062 16 16zm0 0"/><path d="m432 272c0 8.835938-7.164062 16-16 16s-16-7.164062-16-16 7.164062-16 16-16 16 7.164062 16 16zm0 0"/><path d="m304 328c0 8.835938-7.164062 16-16 16s-16-7.164062-16-16 7.164062-16 16-16 16 7.164062 16 16zm0 0"/><path d="m368 328c0 8.835938-7.164062 16-16 16s-16-7.164062-16-16 7.164062-16 16-16 16 7.164062 16 16zm0 0"/><path d="m432 328c0 8.835938-7.164062 16-16 16s-16-7.164062-16-16 7.164062-16 16-16 16 7.164062 16 16zm0 0"/><path d="m304 384c0 8.835938-7.164062 16-16 16s-16-7.164062-16-16 7.164062-16 16-16 16 7.164062 16 16zm0 0"/><path d="m368 384c0 8.835938-7.164062 16-16 16s-16-7.164062-16-16 7.164062-16 16-16 16 7.164062 16 16zm0 0"/><path d="m432 384c0 8.835938-7.164062 16-16 16s-16-7.164062-16-16 7.164062-16 16-16 16 7.164062 16 16zm0 0"/><path d="m144 224h-48v24h48zm0 0"/></g><path d="m152 248h-64c-26.507812 0-48 21.492188-48 48v64c0 17.671875 14.328125 32 32 32h96c17.671875 0 32-14.328125 32-32v-64c0-26.507812-21.492188-48-48-48zm0 0" fill="#ffb655"/><path d="m80 224h80c8.835938 0 16-7.164062 16-16v-56c-14.015625 0-14.015625 12.480469-28 12.480469s-14.015625-8.960938-28-8.960938-13.992188 8.960938-28 8.960938-14.015625-12.480469-28-12.480469v56c0 8.835938 7.164062 16 16 16zm0 0" fill="#ffb655"/><path d="m96 183.992188c4.335938-.863282 8.550781 1.945312 9.414062 6.277343l4.863282 24.3125c.867187 4.332031-1.941406 8.546875-6.277344 9.410157-4.332031.867187-8.546875-1.941407-9.410156-6.273438l-4.863282-24.3125c-.867187-4.332031 1.941407-8.546875 6.273438-9.414062zm0 0" fill="#ee8700"/><path d="m129.71875 214.585938 4.867188-24.3125c.867187-4.332032 5.082031-7.140626 9.414062-6.273438s7.140625 5.082031 6.273438 9.417969l-4.867188 24.308593c-.867188 4.332032-5.082031 7.140626-9.414062 6.273438-4.332032-.867188-7.140626-5.082031-6.273438-9.414062zm0 0" fill="#ee8700"/><path d="m128 312h-16c-4.417969 0-8-3.582031-8-8s3.582031-8 8-8h16c4.417969 0 8 3.582031 8 8h16c0-13.253906-10.746094-24-24-24v-8h-16v8c-13.253906 0-24 10.746094-24 24s10.746094 24 24 24h16c4.417969 0 8 3.582031 8 8s-3.582031 8-8 8h-16c-4.417969 0-8-3.582031-8-8h-16c0 13.253906 10.746094 24 24 24v8h16v-8c13.253906 0 24-10.746094 24-24s-10.746094-24-24-24zm0 0" fill="#ff5023"/><path d="m40 88h64v16h-64zm0 0" fill="#898890"/><path d="m120 88h32v16h-32zm0 0" fill="#acabb1"/><path d="m40 56h32v16h-32zm0 0" fill="#acabb1"/><path d="m88 56h64v16h-64zm0 0" fill="#898890"/></svg>