<svg height="512pt" viewBox="-75 0 512 512" width="512pt" xmlns="http://www.w3.org/2000/svg"><path d="m332.894531 57.128906c-15.613281 0-68.539062 0-84.152343 0 0 .03125.003906.058594.003906.089844-162.992188-.105469-116.625-.089844-219.980469-.089844-15.859375 0-28.765625 12.902344-28.765625 28.765625v397.339844c0 15.863281 12.90625 28.765625 28.765625 28.765625h304.128906c15.863281 0 28.765625-12.902344 28.765625-28.765625v-397.339844c0-15.859375-12.902344-28.765625-28.765625-28.765625zm0 0" fill="#c46f5f"/><path d="m20.296875 483.234375v-397.339844c0-15.863281 12.90625-28.765625 28.765625-28.765625-13.988281 0 11.871094 0-20.296875 0-15.863281 0-28.765625 12.902344-28.765625 28.765625v397.339844c0 15.863281 12.902344 28.765625 28.765625 28.765625h20.296875c-15.859375 0-28.765625-12.902344-28.765625-28.765625zm0 0" fill="#b45f4a"/><path d="m327.140625 89.089844c-6.929687 0-289.316406 0-292.621094 0-1.414062 0-2.558593 1.144531-2.558593 2.558594v385.832031c0 1.414062 1.144531 2.558593 2.558593 2.558593h292.621094c1.414063 0 2.558594-1.144531 2.558594-2.558593v-385.832031c0-1.414063-1.144531-2.558594-2.558594-2.558594zm0 0" fill="#fff6e9"/><path d="m52.257812 477.480469v-385.832031c0-1.414063 1.148438-2.558594 2.558594-2.558594-12.273437 0-19.773437 0-20.296875 0-1.414062 0-2.558593 1.144531-2.558593 2.558594v385.832031c0 1.414062 1.144531 2.558593 2.558593 2.558593h20.296875c-1.410156 0-2.558594-1.144531-2.558594-2.558593zm0 0" fill="#f9e4c7"/><path d="m231.519531 177.214844h-22.164062c-3.117188 0-5.648438-2.53125-5.648438-5.652344v-22.160156c0-3.117188-2.527343-5.648438-5.648437-5.648438h-34.460938c-3.117187 0-5.648437 2.53125-5.648437 5.648438v22.160156c0 3.121094-2.527344 5.652344-5.648438 5.652344h-22.160156c-3.121094 0-5.648437 2.527344-5.648437 5.648437v34.460938c0 3.121093 2.527343 5.648437 5.648437 5.648437h22.160156c3.121094 0 5.648438 2.527344 5.648438 5.648438v22.160156c0 3.121094 2.53125 5.648438 5.648437 5.648438h34.460938c3.121094 0 5.648437-2.527344 5.648437-5.648438v-22.160156c0-3.121094 2.53125-5.648438 5.648438-5.648438h22.164062c3.121094 0 5.648438-2.527344 5.648438-5.648437v-34.460938c0-3.121093-2.527344-5.648437-5.648438-5.648437zm0 0" fill="#ff6b6b"/><path d="m178.25 171.566406v-22.164062c0-3.117188 2.527344-5.648438 5.648438-5.648438h-20.296876c-3.121093 0-5.652343 2.53125-5.652343 5.648438v22.160156c0 3.121094-2.527344 5.652344-5.644531 5.652344h20.296874c3.117188 0 5.648438-2.53125 5.648438-5.648438zm0 0" fill="#ee5253"/><path d="m144.789062 217.324219v-34.460938c0-3.121093 2.53125-5.652343 5.652344-5.652343h-20.300781c-3.121094 0-5.648437 2.53125-5.648437 5.652343v34.460938c0 3.117187 2.527343 5.648437 5.648437 5.648437h20.300781c-3.121094 0-5.652344-2.53125-5.652344-5.648437zm0 0" fill="#ee5253"/><path d="m178.25 250.78125v-22.160156c0-3.121094-2.53125-5.648438-5.648438-5.648438h-20.296874c3.117187 0 5.644531 2.527344 5.644531 5.648438v22.160156c0 3.121094 2.53125 5.648438 5.652343 5.648438h20.296876c-3.121094 0-5.648438-2.527344-5.648438-5.648438zm0 0" fill="#ee5253"/><g fill="#f9e4c7"><path d="m290.832031 307.8125h-220.003906c-4.207031 0-7.613281-3.410156-7.613281-7.613281 0-4.207031 3.40625-7.613281 7.613281-7.613281h220.003906c4.207031 0 7.613281 3.40625 7.613281 7.613281 0 4.203125-3.40625 7.613281-7.613281 7.613281zm0 0"/><path d="m290.832031 339.074219h-220.003906c-4.207031 0-7.613281-3.40625-7.613281-7.609375 0-4.207032 3.40625-7.613282 7.613281-7.613282h220.003906c4.207031 0 7.613281 3.40625 7.613281 7.613282 0 4.203125-3.40625 7.609375-7.613281 7.609375zm0 0"/><path d="m290.832031 370.34375h-220.003906c-4.207031 0-7.613281-3.410156-7.613281-7.613281 0-4.207031 3.40625-7.613281 7.613281-7.613281h220.003906c4.207031 0 7.613281 3.40625 7.613281 7.613281 0 4.203125-3.40625 7.613281-7.613281 7.613281zm0 0"/><path d="m290.832031 401.609375h-220.003906c-4.207031 0-7.613281-3.40625-7.613281-7.613281 0-4.203125 3.40625-7.609375 7.613281-7.609375h220.003906c4.207031 0 7.613281 3.40625 7.613281 7.609375s-3.40625 7.613281-7.613281 7.613281zm0 0"/><path d="m290.832031 432.875h-220.003906c-4.207031 0-7.613281-3.40625-7.613281-7.609375 0-4.207031 3.40625-7.613281 7.613281-7.613281h220.003906c4.207031 0 7.613281 3.40625 7.613281 7.613281 0 4.203125-3.40625 7.609375-7.613281 7.609375zm0 0"/></g><path d="m207.195312 60.832031c-4.203124 0-7.609374-3.410156-7.609374-7.613281v-19.238281c0-10.34375-8.414063-18.757813-18.757813-18.757813-10.339844 0-18.753906 8.414063-18.753906 18.757813v19.238281c0 4.203125-3.40625 7.613281-7.609375 7.613281-4.207032 0-7.613282-3.410156-7.613282-7.613281v-19.238281c0-18.738281 15.242188-33.980469 33.976563-33.980469 18.738281 0 33.980469 15.242188 33.980469 33.980469v19.238281c0 4.203125-3.40625 7.613281-7.613282 7.613281zm0 0" fill="#ccd2db"/><path d="m240.6875 49.160156h-119.714844c-4.429687 0-8.058594 3.625-8.058594 8.058594v36.617188c0 4.429687 3.628907 8.058593 8.058594 8.058593h119.714844c4.429688 0 8.058594-3.628906 8.058594-8.058593v-36.617188c0-4.433594-3.628906-8.058594-8.058594-8.058594zm0 0" fill="#e4eaf8"/><path d="m240.6875 81.59375h-119.714844c-4.433594 0-8.058594-3.625-8.058594-8.058594v20.300782c0 4.429687 3.625 8.058593 8.058594 8.058593h119.714844c4.429688 0 8.058594-3.628906 8.058594-8.058593v-20.300782c0 4.433594-3.628906 8.058594-8.058594 8.058594zm0 0" fill="#ccd2db"/></svg>